# xmcd CD database file
#
# Track frame offsets:
#	182
#	15560
#	52232
#	78457
#	105857
#	150457
#	180282
#	215410
#
# Disc length: 3473 seconds
#
# Revision: 1
# Processed by: cddbd v1.5.2PL0 Copyright (c) Steve Scherf et al.
# Submitted via: CDex 1.70beta2
#
DISCID=560d8f08
DTITLE=D. Cronley - The Beginning
DYEAR=1900
DGENRE=New Age
TTITLE0=First Sun
TTITLE1=The Rain
TTITLE2=The Greatness Of Growing
TTITLE3=Time Far Prosperity
TTITLE4=Themes Of Summer
TTITLE5=Falling Leaves
TTITLE6=Resignation
TTITLE7=Winter Tales
EXTD=
EXTT0=
EXTT1=
EXTT2=
EXTT3=
EXTT4=
EXTT5=
EXTT6=
EXTT7=
PLAYORDER=
